<svg width="93" height="38" viewBox="0 0 93 38" fill="none" xmlns="http://www.w3.org/2000/svg">
<path d="M-0.000187397 17.088V0.288012H8.20781C10.3198 0.288012 11.9038 0.688012 12.9598 1.48801C14.0318 2.28801 14.5678 3.34401 14.5678 4.65601C14.5678 5.53601 14.3518 6.30401 13.9198 6.96001C13.4878 7.60001 12.8958 8.09601 12.1438 8.44801C11.3918 8.80001 10.5278 8.97601 9.55181 8.97601L10.0078 7.99201C11.0638 7.99201 11.9998 8.16801 12.8158 8.52001C13.6318 8.85601 14.2638 9.36001 14.7118 10.032C15.1758 10.704 15.4078 11.528 15.4078 12.504C15.4078 13.944 14.8398 15.072 13.7038 15.888C12.5678 16.688 10.8958 17.088 8.68781 17.088H-0.000187397ZM3.86381 14.16H8.39981C9.40781 14.16 10.1678 14 10.6798 13.68C11.2078 13.344 11.4718 12.816 11.4718 12.096C11.4718 11.392 11.2078 10.872 10.6798 10.536C10.1678 10.184 9.40781 10.008 8.39981 10.008H3.57581V7.17601H7.72781C8.67181 7.17601 9.39181 7.01601 9.88781 6.69601C10.3998 6.36001 10.6558 5.85601 10.6558 5.18401C10.6558 4.52801 10.3998 4.04001 9.88781 3.72001C9.39181 3.38401 8.67181 3.21601 7.72781 3.21601H3.86381V14.16ZM18.3514 17.088V0.288012H22.2394V13.92H30.6634V17.088H18.3514ZM30.7215 17.088L38.2095 0.288012H42.0495L49.5615 17.088H45.4815L39.3375 2.25601H40.8735L34.7055 17.088H30.7215ZM34.4655 13.488L35.4975 10.536H44.1375L45.1935 13.488H34.4655ZM59.1101 17.376C57.8141 17.376 56.6061 17.168 55.4861 16.752C54.3821 16.32 53.4221 15.712 52.6061 14.928C51.7901 14.144 51.1501 13.224 50.6861 12.168C50.2381 11.112 50.0141 9.95201 50.0141 8.68801C50.0141 7.42401 50.2381 6.26401 50.6861 5.20801C51.1501 4.15201 51.7901 3.23201 52.6061 2.44801C53.4381 1.66401 54.4061 1.06401 55.5101 0.648011C56.6141 0.216012 57.8221 1.23978e-05 59.1341 1.23978e-05C60.5901 1.23978e-05 61.9021 0.256012 63.0701 0.768013C64.2541 1.26401 65.2461 2.00001 66.0461 2.97601L63.5501 5.28001C62.9741 4.62401 62.3341 4.13601 61.6301 3.81601C60.9261 3.48001 60.1581 3.31201 59.3261 3.31201C58.5421 3.31201 57.8221 3.44001 57.1661 3.69601C56.5101 3.95201 55.9421 4.32001 55.4621 4.80001C54.9821 5.28001 54.6061 5.84801 54.3341 6.50401C54.0781 7.16001 53.9501 7.88801 53.9501 8.68801C53.9501 9.48801 54.0781 10.216 54.3341 10.872C54.6061 11.528 54.9821 12.096 55.4621 12.576C55.9421 13.056 56.5101 13.424 57.1661 13.68C57.8221 13.936 58.5421 14.064 59.3261 14.064C60.1581 14.064 60.9261 13.904 61.6301 13.584C62.3341 13.248 62.9741 12.744 63.5501 12.072L66.0461 14.376C65.2461 15.352 64.2541 16.096 63.0701 16.608C61.9021 17.12 60.5821 17.376 59.1101 17.376ZM72.1517 13.248L71.9357 8.76001L79.9757 0.288012H84.2957L77.0477 8.08801L74.8877 10.392L72.1517 13.248ZM68.6717 17.088V0.288012H72.5357V17.088H68.6717ZM80.1677 17.088L74.1917 9.76801L76.7357 7.00801L84.7037 17.088H80.1677ZM3.59981 27.848H11.6638V30.968H3.59981V27.848ZM3.88781 37.088H-0.000187397V20.288H12.6958V23.408H3.88781V37.088ZM15.3279 37.088V20.288H22.5999C24.1039 20.288 25.3999 20.536 26.4879 21.032C27.5759 21.512 28.4159 22.208 29.0079 23.12C29.5999 24.032 29.8959 25.12 29.8959 26.384C29.8959 27.632 29.5999 28.712 29.0079 29.624C28.4159 30.52 27.5759 31.208 26.4879 31.688C25.3999 32.168 24.1039 32.408 22.5999 32.408H17.4879L19.2159 30.704V37.088H15.3279ZM26.0079 37.088L21.8079 30.992H25.9599L30.2079 37.088H26.0079ZM19.2159 31.136L17.4879 29.312H22.3839C23.5839 29.312 24.4799 29.056 25.0719 28.544C25.6639 28.016 25.9599 27.296 25.9599 26.384C25.9599 25.456 25.6639 24.736 25.0719 24.224C24.4799 23.712 23.5839 23.456 22.3839 23.456H17.4879L19.2159 21.608V31.136ZM32.9764 37.088V20.288H36.8644V37.088H32.9764ZM40.8514 37.088V20.288H48.4834C50.3074 20.288 51.9154 20.64 53.3074 21.344C54.6994 22.032 55.7874 23 56.5714 24.248C57.3554 25.496 57.7474 26.976 57.7474 28.688C57.7474 30.384 57.3554 31.864 56.5714 33.128C55.7874 34.376 54.6994 35.352 53.3074 36.056C51.9154 36.744 50.3074 37.088 48.4834 37.088H40.8514ZM44.7394 33.896H48.2914C49.4114 33.896 50.3794 33.688 51.1954 33.272C52.0274 32.84 52.6674 32.232 53.1154 31.448C53.5794 30.664 53.8114 29.744 53.8114 28.688C53.8114 27.616 53.5794 26.696 53.1154 25.928C52.6674 25.144 52.0274 24.544 51.1954 24.128C50.3794 23.696 49.4114 23.48 48.2914 23.48H44.7394V33.896ZM58.2371 37.088L65.7251 20.288H69.5651L77.0771 37.088H72.9971L66.8531 22.256H68.3891L62.2211 37.088H58.2371ZM61.9811 33.488L63.0131 30.536H71.6531L72.7091 33.488H61.9811ZM81.9649 37.088V30.224L82.8529 32.576L75.4609 20.288H79.5889L85.2529 29.72H82.8769L88.5649 20.288H92.3809L84.9889 32.576L85.8529 30.224V37.088H81.9649Z" fill="black"/>
</svg>
