<svg width="104" height="30" viewBox="0 0 104 30" fill="none" xmlns="http://www.w3.org/2000/svg">
<rect width="103.069" height="29.2286" rx="7.69175" fill="#D5301B"/>
<path d="M8.47341 24.0733L5.3721 23.7964L6.05513 11.1143C5.73515 11.1881 5.43979 11.2743 5.16904 11.3727L4.61523 8.2345C5.26749 8.09912 6.07359 7.9576 7.03352 7.80991C7.99345 7.66223 8.98415 7.58839 10.0056 7.58839C10.7932 7.58839 11.5932 7.67454 12.4054 7.84684C13.2177 8.00682 13.993 8.27757 14.7314 8.65908C15.4821 9.02829 16.1467 9.52671 16.7251 10.1544C17.3158 10.782 17.7774 11.5512 18.1096 12.4619C18.4542 13.3726 18.6265 14.4494 18.6265 15.6924C18.6265 17.44 18.3435 18.9353 17.7774 20.1782C17.2235 21.4089 16.4113 22.3504 15.3406 23.0027C14.2822 23.6549 13.0023 23.981 11.5009 23.981C10.504 23.981 9.51949 23.7964 8.54726 23.4272C8.52264 23.6734 8.49803 23.8887 8.47341 24.0733ZM9.87639 10.6897C9.70409 10.6897 9.52565 10.6897 9.34104 10.6897C9.21798 12.9788 9.10721 14.9294 9.00876 16.5416C8.91031 18.1415 8.82416 19.4768 8.75032 20.5474C9.11952 20.6705 9.52565 20.7813 9.96869 20.8797C10.424 20.9659 10.8979 21.009 11.3901 21.009C12.387 21.009 13.1869 20.7567 13.79 20.2521C14.4053 19.7475 14.8483 19.0829 15.1191 18.2584C15.3898 17.4215 15.5252 16.517 15.5252 15.5447C15.5252 14.7694 15.4083 14.111 15.1745 13.5695C14.9406 13.028 14.633 12.5788 14.2515 12.2219C13.8823 11.865 13.4761 11.5881 13.0331 11.3912C12.59 11.182 12.1531 11.0281 11.7224 10.9297C11.304 10.8312 10.9286 10.7697 10.5963 10.7451C10.2641 10.7082 10.0241 10.6897 9.87639 10.6897ZM20.1564 10.6897C20.1564 10.5789 20.1503 10.4682 20.1379 10.3574C20.1379 10.2344 20.1379 10.099 20.1379 9.9513C20.1379 9.55748 20.1503 9.13905 20.1749 8.696C20.1995 8.25296 20.2241 7.8776 20.2487 7.56993L23.5346 7.62531C23.4977 8.04374 23.4546 8.51755 23.4054 9.04675C23.3685 9.57594 23.3439 10.1236 23.3316 10.6897H20.1564ZM20.0826 23.9072C20.0456 23.1442 20.021 22.3319 20.0087 21.4705C19.9964 20.5967 19.9903 19.7229 19.9903 18.8491C19.9903 17.7046 20.0026 16.5908 20.0272 15.5078C20.0518 14.4248 20.0826 13.4403 20.1195 12.5542L23.2946 12.5357C23.2454 13.1018 23.2146 13.8033 23.2023 14.6402C23.19 15.4647 23.1839 16.3324 23.1839 17.2431C23.1839 18.1415 23.19 19.0276 23.2023 19.9013C23.2146 20.7751 23.227 21.5689 23.2393 22.2827C23.2639 22.9842 23.2823 23.5257 23.2946 23.9072H20.0826ZM30.5065 24.1472C29.6697 24.1472 28.8943 24.0487 28.1805 23.8518C27.4667 23.6549 26.8206 23.4026 26.2422 23.095C25.6638 22.7873 25.1469 22.4612 24.6916 22.1166L26.353 19.4398C26.8699 19.9198 27.3683 20.289 27.8483 20.5474C28.3282 20.8059 28.8266 20.9843 29.3435 21.0828C29.8727 21.1812 30.445 21.2305 31.0603 21.2305C31.5895 21.2305 32.0141 21.1628 32.3341 21.0274C32.6541 20.8797 32.814 20.6951 32.814 20.4736C32.814 20.289 32.6602 20.1475 32.3525 20.049C32.0449 19.9383 31.6511 19.846 31.1711 19.7721C30.6911 19.686 30.1865 19.5814 29.6574 19.4583C28.9066 19.2614 28.2051 19.0337 27.5529 18.7753C26.9006 18.5168 26.3714 18.1661 25.9653 17.723C25.5715 17.28 25.3746 16.6893 25.3746 15.9509C25.3746 15.3601 25.5161 14.8432 25.7992 14.4002C26.0822 13.9449 26.4576 13.5695 26.9252 13.2741C27.4052 12.9665 27.9467 12.7388 28.5497 12.5911C29.1528 12.4434 29.7743 12.3696 30.4142 12.3696C31.5218 12.3696 32.4756 12.505 33.2755 12.7757C34.0878 13.0341 34.8631 13.3787 35.6015 13.8095L33.9217 16.357C33.5525 16.0985 33.1279 15.877 32.6479 15.6924C32.1802 15.4955 31.7064 15.3478 31.2265 15.2494C30.7588 15.1386 30.3219 15.0832 29.9158 15.0832C29.4727 15.0832 29.122 15.1509 28.8636 15.2863C28.6174 15.4217 28.4944 15.6124 28.4944 15.8586C28.4944 16.0062 28.6482 16.1478 28.9559 16.2831C29.2758 16.4062 29.8789 16.5724 30.765 16.7816C31.2942 16.9046 31.8541 17.0339 32.4448 17.1692C33.0356 17.2923 33.5894 17.4707 34.1063 17.7046C34.6355 17.9261 35.06 18.2522 35.38 18.683C35.7123 19.1014 35.8784 19.6614 35.8784 20.3628C35.8784 21.5443 35.4046 22.4673 34.457 23.1319C33.5094 23.8087 32.1926 24.1472 30.5065 24.1472ZM42.7292 24.1103C41.6954 24.1103 40.7416 23.8949 39.8679 23.4642C38.9941 23.0334 38.2926 22.4181 37.7634 21.6181C37.2342 20.8059 36.9696 19.8398 36.9696 18.7199C36.9696 17.4646 37.2157 16.3631 37.708 15.4155C38.2003 14.4679 38.8895 13.7356 39.7756 13.2188C40.6616 12.6896 41.6954 12.425 42.8769 12.425C44.0091 12.425 44.969 12.6588 45.7567 13.1265C46.5443 13.5818 47.2458 14.3079 47.8611 15.3048L45.2952 17.0769C44.9506 16.5231 44.5998 16.1047 44.2429 15.8216C43.886 15.5263 43.3999 15.3786 42.7846 15.3786C41.9477 15.3786 41.2708 15.674 40.7539 16.2647C40.2371 16.8431 39.9786 17.6184 39.9786 18.5907C39.9786 19.1568 40.114 19.6183 40.3847 19.9752C40.6678 20.3321 41.0124 20.5967 41.4185 20.769C41.8246 20.9413 42.2061 21.0274 42.563 21.0274C42.9323 21.0274 43.2891 20.9843 43.6337 20.8982C43.9783 20.7997 44.3045 20.5905 44.6121 20.2705C44.9198 19.9506 45.1967 19.4645 45.4428 18.8122L48.2119 20.289C47.8427 20.9659 47.4304 21.5935 46.975 22.1719C46.5197 22.7504 45.9536 23.218 45.2767 23.5749C44.6121 23.9318 43.763 24.1103 42.7292 24.1103ZM54.9171 24.1287C53.9326 24.1287 53.0711 23.9687 52.3327 23.6488C51.6066 23.3288 51.0035 22.8919 50.5236 22.3381C50.0436 21.772 49.6867 21.1259 49.4529 20.3998C49.2191 19.6737 49.1021 18.9106 49.1021 18.1107C49.1021 17.2985 49.2437 16.5477 49.5267 15.8586C49.8221 15.1571 50.2221 14.5479 50.7266 14.031C51.2435 13.5141 51.8466 13.1141 52.5357 12.8311C53.2249 12.5357 53.9756 12.388 54.7879 12.388C55.637 12.388 56.4247 12.5357 57.1508 12.8311C57.8769 13.1264 58.5107 13.5387 59.0522 14.0679C59.5937 14.5971 60.0121 15.2186 60.3075 15.9324C60.6151 16.6462 60.769 17.4215 60.769 18.2584C60.769 20.1167 60.2582 21.5628 59.2368 22.5965C58.2153 23.618 56.7754 24.1287 54.9171 24.1287ZM54.8986 21.1382C55.797 21.1382 56.4801 20.8859 56.9477 20.3813C57.4277 19.8767 57.6677 19.1506 57.6677 18.203C57.6677 17.3538 57.4092 16.6708 56.8923 16.1539C56.3755 15.637 55.6986 15.3786 54.8617 15.3786C54.3571 15.3786 53.8956 15.514 53.4772 15.7847C53.0588 16.0432 52.7203 16.3939 52.4619 16.8369C52.2158 17.2677 52.0927 17.7477 52.0927 18.2768C52.0927 18.7445 52.185 19.1999 52.3696 19.6429C52.5665 20.0859 52.8742 20.449 53.2926 20.7321C53.711 21.0028 54.2464 21.1382 54.8986 21.1382ZM66.3141 24.1287C65.5265 24.1287 64.8742 23.9872 64.3573 23.7041C63.8527 23.4334 63.4466 23.058 63.139 22.5781C62.8436 22.0981 62.6221 21.5628 62.4744 20.972C62.339 20.369 62.2467 19.7475 62.1975 19.1076C62.1606 18.4553 62.1421 17.8276 62.1421 17.2246C62.1421 16.5354 62.1606 15.8339 62.1975 15.1202C62.2467 14.4064 62.2959 13.6249 62.3452 12.7757L65.7234 12.5726C65.6865 12.8311 65.6311 13.2188 65.5572 13.7356C65.4834 14.2525 65.4157 14.8432 65.3542 15.5078C65.2926 16.1724 65.2619 16.8677 65.2619 17.5938C65.2619 18.7876 65.3665 19.6737 65.5757 20.2521C65.7849 20.8182 66.0987 21.1013 66.5172 21.1013C67.354 21.1013 67.9694 20.4921 68.3632 19.2737C68.757 18.0553 68.9539 16.1293 68.9539 13.4957V12.6465L70.523 12.6096L72.4244 12.5726C72.2521 13.7295 72.1229 14.794 72.0368 15.7663C71.9506 16.7385 71.8952 17.5569 71.8706 18.2215C71.846 18.8737 71.8337 19.3106 71.8337 19.5321C71.8337 20.0983 71.8829 20.5044 71.9814 20.7505C72.0798 20.9843 72.2521 21.1013 72.4983 21.1013C72.6213 21.1013 72.7567 21.0766 72.9044 21.0274C73.0521 20.9782 73.2244 20.892 73.4213 20.769L73.2921 23.9441C72.8244 24.018 72.4183 24.0549 72.0737 24.0549C71.483 24.0549 70.9968 23.9441 70.6153 23.7226C70.2461 23.5011 69.9508 23.2057 69.7292 22.8365C69.3477 23.2426 68.8739 23.5565 68.3078 23.778C67.754 24.0118 67.0894 24.1287 66.3141 24.1287ZM75.0911 23.9441C75.0541 22.8611 75.0234 21.8581 74.9988 20.9351C74.9865 20.0121 74.9803 19.1014 74.9803 18.203C74.9803 17.3046 74.9865 16.4062 74.9988 15.5078C75.0234 14.5971 75.0603 13.6249 75.1095 12.5911H78.2293C78.1801 13.1449 78.137 13.7049 78.1001 14.271C78.5185 13.7418 79.0169 13.3049 79.5953 12.9603C80.1738 12.6034 80.8568 12.425 81.6444 12.425C82.4198 12.425 83.0536 12.5542 83.5458 12.8126C84.0504 13.0711 84.4442 13.428 84.7273 13.8833C85.0226 14.3387 85.2319 14.8617 85.3549 15.4524C85.4903 16.0309 85.5765 16.6585 85.6134 17.3354C85.6503 17.9999 85.6688 18.6707 85.6688 19.3475C85.6688 20.0859 85.6564 20.7936 85.6318 21.4705C85.6072 22.1473 85.5826 22.7134 85.558 23.1688C85.5334 23.6241 85.5149 23.8949 85.5026 23.981H82.4013C82.4259 23.4765 82.4505 22.9411 82.4751 22.375C82.4998 21.7966 82.5244 21.2305 82.549 20.6767C82.5736 20.1106 82.5859 19.5998 82.5859 19.1445C82.5859 16.5231 82.1613 15.2125 81.3121 15.2125C80.6107 15.2125 79.9707 15.5201 79.3923 16.1355C78.8262 16.7385 78.3524 17.5015 77.9709 18.4245C77.9709 18.5476 77.9709 18.6707 77.9709 18.7937C77.9709 19.3845 77.9709 19.9998 77.9709 20.6397C77.9832 21.2674 77.9955 21.8704 78.0078 22.4488C78.0324 23.015 78.0508 23.5072 78.0632 23.9257L75.0911 23.9441ZM93.0106 24.0733C92.2722 24.0733 91.6876 23.9134 91.2569 23.5934C90.8261 23.2857 90.5123 22.855 90.3154 22.3012C90.1185 21.7474 89.9893 21.1136 89.9277 20.3998C89.8785 19.686 89.8539 18.9353 89.8539 18.1476C89.8539 17.3354 89.8846 16.4924 89.9462 15.6186C89.1216 15.7293 88.3278 15.8709 87.5648 16.0432L86.9926 13.1449C88.014 12.8742 89.1032 12.6773 90.26 12.5542C90.3462 11.9265 90.4385 11.2681 90.5369 10.5789C90.6354 9.87746 90.7461 9.13905 90.8692 8.36372L94.0443 8.64062C93.8967 9.28058 93.7674 9.92053 93.6567 10.5605C93.5459 11.1881 93.4475 11.7973 93.3613 12.388C94.0505 12.388 94.6966 12.4065 95.2996 12.4434C95.915 12.468 96.4811 12.5173 96.998 12.5911L96.6288 15.4894C96.198 15.4401 95.7488 15.4094 95.2812 15.3971C94.8258 15.3724 94.3643 15.3601 93.8967 15.3601C93.6136 15.3601 93.3306 15.3663 93.0475 15.3786C92.9737 16.277 92.9244 17.0462 92.8998 17.6861C92.8875 18.3261 92.8814 18.7814 92.8814 19.0522C92.8814 19.729 92.9183 20.2152 92.9921 20.5105C93.0783 20.8059 93.2136 20.9536 93.3982 20.9536C93.6075 20.9536 93.8413 20.8859 94.0997 20.7505C94.3582 20.6028 94.6105 20.4059 94.8566 20.1598C95.115 19.9136 95.3304 19.6491 95.5027 19.366L96.9241 22.3381C95.7058 23.4949 94.4012 24.0733 93.0106 24.0733Z" fill="white"/>
</svg>
