<svg width="93" height="30" viewBox="0 0 93 30" fill="none" xmlns="http://www.w3.org/2000/svg">
<path d="M12.4793 27.8401C12.3193 28.2534 12.086 28.5534 11.7793 28.7401C11.486 28.9401 11.2126 29.0401 10.9593 29.0401C10.426 29.0401 10.1593 28.4001 10.1593 27.1201L10.2393 13.3601C10.2393 12.9067 10.2326 12.6334 10.2193 12.5401C10.206 12.4467 10.1726 12.4001 10.1193 12.4001C9.9593 12.4001 9.7593 12.6401 9.5193 13.1201L1.7593 27.8401C1.5993 28.1601 1.34596 28.4001 0.999297 28.5601C0.705964 28.7067 0.505964 28.8467 0.399297 28.9801C0.29263 29.1267 0.199297 29.2001 0.119297 29.2001C0.039297 29.2001 -0.000703067 29.1734 -0.000703067 29.1201C-0.000703067 29.0667 0.039297 28.9467 0.119297 28.7601C1.1593 26.4534 1.6793 24.8667 1.6793 24.0001C1.6793 23.1201 1.57263 22.6801 1.3593 22.6801C1.29263 22.6801 1.1993 22.7134 1.0793 22.7801C0.97263 22.8467 0.89263 22.8801 0.839297 22.8801C0.785964 22.8801 0.759297 22.8401 0.759297 22.7601L1.3993 22.3601C1.46596 22.3201 1.54596 22.2667 1.6393 22.2001C1.82596 22.0667 1.97263 22.0001 2.0793 22.0001C2.18596 22.0001 2.33263 22.0667 2.5193 22.2001C2.89263 22.4667 3.0793 22.9334 3.0793 23.6001L9.2393 12.2801C9.3993 11.9467 9.64596 11.6734 9.9793 11.4601C10.326 11.2334 10.746 11.1201 11.2393 11.1201C11.6926 11.1201 11.9193 11.5201 11.9193 12.3201L11.7993 27.0801C12.2393 25.9867 13.4926 23.4334 15.5593 19.4201C17.626 15.3934 18.9593 13.0934 19.5593 12.5201C20.2793 11.8001 20.866 11.3601 21.3193 11.2001C21.5193 11.1201 21.726 11.0801 21.9393 11.0801C22.166 11.0801 22.3793 11.1334 22.5793 11.2401C22.7793 11.3334 22.8793 11.4334 22.8793 11.5401C22.8793 11.6467 22.7793 11.7867 22.5793 11.9601C22.3793 12.1467 22.1793 12.3334 21.9793 12.5201C21.5393 12.9067 21.3126 13.0934 21.2993 13.0801C21.2326 13.0801 21.1993 13.0401 21.1993 12.9601C21.1993 12.8801 21.1526 12.8001 21.0593 12.7201C20.966 12.6401 20.8526 12.6001 20.7193 12.6001C20.3326 12.6001 19.986 12.8267 19.6793 13.2801C18.626 14.8134 17.2993 17.2667 15.6993 20.6401C14.1126 24.0001 13.0393 26.4001 12.4793 27.8401ZM25.1624 25.2001C26.5224 23.8401 27.2024 22.9334 27.2024 22.4801C27.2024 22.3734 27.1491 22.3201 27.0424 22.3201C26.7758 22.3201 26.1491 23.2801 25.1624 25.2001ZM24.7624 19.8001C23.9224 19.8001 23.0624 20.1734 22.1824 20.9201C21.3158 21.6667 20.6158 22.5601 20.0824 23.6001C19.5491 24.6401 19.2824 25.6134 19.2824 26.5201C19.2824 27.4267 19.6558 27.8801 20.4024 27.8801C21.2291 27.8801 22.1491 27.5067 23.1624 26.7601C23.4424 25.7734 24.0158 24.6934 24.8824 23.5201C25.6824 22.3867 26.3491 21.7201 26.8824 21.5201C26.4291 20.3734 25.7224 19.8001 24.7624 19.8001ZM24.6824 19.3201C25.9624 19.3201 26.8024 20.0267 27.2024 21.4401C27.5491 21.4401 27.7224 21.5867 27.7224 21.8801C27.7224 22.2401 27.6624 22.5401 27.5424 22.7801C27.4224 23.0067 27.3291 23.1801 27.2624 23.3001C27.2091 23.4067 27.1091 23.5467 26.9624 23.7201C26.8024 23.8934 26.6958 24.0134 26.6424 24.0801C26.0958 24.6934 25.5224 25.2667 24.9224 25.8001C24.7091 26.4934 24.6024 26.9601 24.6024 27.2001C24.6024 27.7601 25.0491 28.0401 25.9424 28.0401C26.8358 28.0401 27.9424 27.5067 29.2624 26.4401C30.5958 25.3734 31.5358 24.4267 32.0824 23.6001C32.1358 23.5201 32.1891 23.4801 32.2424 23.4801C32.2958 23.4801 32.3224 23.5001 32.3224 23.5401C32.3224 23.5801 32.3091 23.6267 32.2824 23.6801C31.5624 24.6401 30.8424 25.4334 30.1224 26.0601C29.4158 26.6867 28.5424 27.3001 27.5024 27.9001C26.4758 28.5001 25.5358 28.8001 24.6824 28.8001C23.6158 28.8001 23.0824 28.3734 23.0824 27.5201C23.0824 27.4801 23.0891 27.4201 23.1024 27.3401C23.1158 27.2601 23.1224 27.2001 23.1224 27.1601C21.6158 28.0934 20.3758 28.5601 19.4024 28.5601C18.2824 28.5601 17.7224 27.8801 17.7224 26.5201C17.7224 25.5334 18.0691 24.4801 18.7624 23.3601C19.4691 22.2267 20.3691 21.2734 21.4624 20.5001C22.5691 19.7134 23.6424 19.3201 24.6824 19.3201ZM31.1685 20.7201C31.1418 20.7201 31.1285 20.6934 31.1285 20.6401C31.1285 20.5867 31.1618 20.5334 31.2285 20.4801C31.4285 20.3467 31.6285 20.2067 31.8285 20.0601C32.0418 19.9134 32.8752 19.7201 34.3285 19.4801L37.5685 13.4801C37.7285 13.1467 37.9552 12.8467 38.2485 12.5801C38.5152 12.3001 38.7818 12.1601 39.0485 12.1601C39.0618 12.1601 39.0818 12.1601 39.1085 12.1601C39.3352 12.1601 39.4485 12.2134 39.4485 12.3201C39.4485 12.4267 39.1152 13.0467 38.4485 14.1801C37.7818 15.3134 36.8618 17.0134 35.6885 19.2801L39.4485 18.6801C39.5285 18.6801 39.5685 18.6934 39.5685 18.7201C39.5685 18.8001 39.4685 18.9001 39.2685 19.0201C39.0818 19.1401 38.9352 19.2001 38.8285 19.2001C38.7218 19.2001 37.5952 19.3734 35.4485 19.7201L33.5285 23.7201C32.8085 25.3201 32.4485 26.3601 32.4485 26.8401C32.4485 27.3201 32.5885 27.7134 32.8685 28.0201C33.1485 28.3267 33.5018 28.4801 33.9285 28.4801C34.9685 28.4801 35.8218 28.2934 36.4885 27.9201C37.1685 27.5467 37.8752 27.0334 38.6085 26.3801C39.3552 25.7267 39.9552 25.1467 40.4085 24.6401C40.8752 24.1201 41.1485 23.8001 41.2285 23.6801C41.3218 23.5467 41.3952 23.4801 41.4485 23.4801C41.5018 23.4801 41.5285 23.5001 41.5285 23.5401C41.5285 23.5801 41.5152 23.6267 41.4885 23.6801C40.8485 24.5201 40.1818 25.2734 39.4885 25.9401C38.7952 26.5934 38.1885 27.1134 37.6685 27.5001C37.1618 27.8867 36.5218 28.2201 35.7485 28.5001C34.9885 28.7801 34.2152 28.9201 33.4285 28.9201C32.6552 28.9201 32.0418 28.7467 31.5885 28.4001C31.1485 28.0534 30.9285 27.5067 30.9285 26.7601C30.9285 26.0134 31.3152 24.9601 32.0885 23.6001L34.0085 20.0401C32.3285 20.3734 31.4418 20.5734 31.3485 20.6401C31.2685 20.6934 31.2085 20.7201 31.1685 20.7201ZM51.6677 26.3201C52.2544 25.7867 52.7477 25.2934 53.1477 24.8401C53.5477 24.3867 53.8211 24.0467 53.9677 23.8201C54.1277 23.5934 54.2344 23.4801 54.2877 23.4801C54.3411 23.4801 54.3677 23.5001 54.3677 23.5401C54.3677 23.5801 54.3544 23.6267 54.3277 23.6801C53.5411 24.9467 52.3944 26.1467 50.8877 27.2801C49.3811 28.4001 47.9677 28.9601 46.6477 28.9601C45.9544 28.9601 45.6077 28.6534 45.6077 28.0401C45.6077 27.6401 45.7144 27.1601 45.9277 26.6001C45.1011 27.2134 44.2144 27.7467 43.2677 28.2001C42.3344 28.6534 41.5144 28.8801 40.8077 28.8801C40.4877 28.8801 40.1744 28.7801 39.8677 28.5801C39.5611 28.3801 39.4077 28.0401 39.4077 27.5601C39.4077 27.0667 39.9411 25.8867 41.0077 24.0201C42.0744 22.1401 42.6077 21.0134 42.6077 20.6401C42.6077 20.2667 42.4011 20.0801 41.9877 20.0801C41.5877 20.0801 41.1277 20.2534 40.6077 20.6001C40.4877 20.6801 40.4077 20.7201 40.3677 20.7201C40.3411 20.7201 40.3277 20.6934 40.3277 20.6401C40.3277 20.5867 40.3677 20.5334 40.4477 20.4801C41.3011 19.8934 42.0344 19.6001 42.6477 19.6001C43.5277 19.6001 43.9677 19.9867 43.9677 20.7601C43.9677 21.1601 43.4611 22.2601 42.4477 24.0601C41.4344 25.8467 40.9277 26.9001 40.9277 27.2201C40.9277 27.5401 41.0411 27.7667 41.2677 27.9001C41.4944 28.0201 41.7411 28.0801 42.0077 28.0801C42.6877 28.0801 43.4477 27.8134 44.2877 27.2801C45.1277 26.7334 45.7811 26.2134 46.2477 25.7201C46.5411 25.0801 47.0611 24.0934 47.8077 22.7601C48.5544 21.4134 49.0211 20.6267 49.2077 20.4001C49.6744 19.8934 50.1011 19.6401 50.4877 19.6401C50.5944 19.6401 50.6477 19.7201 50.6477 19.8801C50.6477 20.0401 50.3344 20.6734 49.7077 21.7801C49.0944 22.8734 48.4077 23.9067 47.6477 24.8801C47.1944 25.8667 46.9677 26.7067 46.9677 27.4001C46.9677 27.6134 47.0277 27.7934 47.1477 27.9401C47.2677 28.0867 47.4211 28.1601 47.6077 28.1601C48.2744 28.1601 48.9677 27.9867 49.6877 27.6401C50.4211 27.2801 51.0811 26.8401 51.6677 26.3201ZM55.4398 19.6001C55.8264 19.6001 56.1198 19.7067 56.3198 19.9201C56.5331 20.1334 56.6398 20.3534 56.6398 20.5801C56.6398 20.8067 56.5864 21.0534 56.4798 21.3201C56.3731 21.5867 56.2598 21.8334 56.1398 22.0601C56.0198 22.2867 55.8864 22.5267 55.7398 22.7801C55.6064 23.0201 55.5331 23.1601 55.5198 23.2001C56.3198 22.2801 57.3064 21.4001 58.4798 20.5601C59.3198 19.9734 60.4131 19.4134 61.7598 18.8801C61.9198 18.8267 62.0198 18.8001 62.0598 18.8001C62.0998 18.8001 62.1198 18.8201 62.1198 18.8601C62.1198 18.9001 62.1064 18.9334 62.0798 18.9601C62.0664 18.9734 62.0464 18.9867 62.0198 19.0001C61.9931 19.0134 61.9131 19.0534 61.7798 19.1201C61.6598 19.1867 61.3864 19.4067 60.9598 19.7801C60.5331 20.1401 60.3198 20.4601 60.3198 20.7401C60.3198 21.0201 60.4398 21.1601 60.6798 21.1601C60.9864 21.1601 61.4531 20.9334 62.0798 20.4801C62.1998 20.4001 62.2731 20.3601 62.2998 20.3601C62.3398 20.3601 62.3598 20.3867 62.3598 20.4401C62.3598 20.4934 62.3198 20.5467 62.2398 20.6001C61.6931 21.0001 61.2598 21.2734 60.9398 21.4201C60.6331 21.5667 60.3264 21.6401 60.0198 21.6401C59.7131 21.6401 59.4664 21.5867 59.2798 21.4801C59.0931 21.3734 58.9998 21.2201 58.9998 21.0201C58.9998 20.8067 59.0798 20.6001 59.2398 20.4001C58.6264 20.7467 57.9064 21.3201 57.0798 22.1201C56.2531 22.9067 55.4264 23.8534 54.5998 24.9601C53.3731 27.2267 52.6798 28.4534 52.5198 28.6401C52.3598 28.8267 52.2398 28.9201 52.1598 28.9201C52.0931 28.9201 52.0398 28.9001 51.9998 28.8601C51.9598 28.8334 51.9064 28.7667 51.8398 28.6601C51.7864 28.5534 51.7064 28.4267 51.5998 28.2801C51.4931 28.1201 51.4398 27.9934 51.4398 27.9001C51.4398 27.7934 51.5331 27.6001 51.7198 27.3201C51.9064 27.0267 52.1198 26.7467 52.3598 26.4801C52.6131 26.2001 52.8264 25.9467 52.9998 25.7201C54.0931 23.6667 54.7598 22.3934 54.9998 21.9001C55.2398 21.3934 55.3598 21.0267 55.3598 20.8001C55.3598 20.5601 55.2998 20.3801 55.1798 20.2601C55.0731 20.1401 54.8864 20.0801 54.6198 20.0801C54.3531 20.0801 53.9598 20.2534 53.4398 20.6001C53.3198 20.6801 53.2398 20.7201 53.1998 20.7201C53.1731 20.7201 53.1598 20.6934 53.1598 20.6401C53.1598 20.5867 53.1998 20.5334 53.2798 20.4801C54.1331 19.8934 54.8531 19.6001 55.4398 19.6001ZM68.2484 25.2001C69.6084 23.8401 70.2884 22.9334 70.2884 22.4801C70.2884 22.3734 70.235 22.3201 70.1284 22.3201C69.8617 22.3201 69.235 23.2801 68.2484 25.2001ZM67.8484 19.8001C67.0084 19.8001 66.1484 20.1734 65.2684 20.9201C64.4017 21.6667 63.7017 22.5601 63.1684 23.6001C62.635 24.6401 62.3684 25.6134 62.3684 26.5201C62.3684 27.4267 62.7417 27.8801 63.4884 27.8801C64.315 27.8801 65.235 27.5067 66.2484 26.7601C66.5284 25.7734 67.1017 24.6934 67.9684 23.5201C68.7684 22.3867 69.435 21.7201 69.9684 21.5201C69.515 20.3734 68.8084 19.8001 67.8484 19.8001ZM67.7684 19.3201C69.0484 19.3201 69.8884 20.0267 70.2884 21.4401C70.635 21.4401 70.8084 21.5867 70.8084 21.8801C70.8084 22.2401 70.7484 22.5401 70.6284 22.7801C70.5084 23.0067 70.415 23.1801 70.3484 23.3001C70.295 23.4067 70.195 23.5467 70.0484 23.7201C69.8884 23.8934 69.7817 24.0134 69.7284 24.0801C69.1817 24.6934 68.6084 25.2667 68.0084 25.8001C67.795 26.4934 67.6884 26.9601 67.6884 27.2001C67.6884 27.7601 68.135 28.0401 69.0284 28.0401C69.9217 28.0401 71.0284 27.5067 72.3484 26.4401C73.6817 25.3734 74.6217 24.4267 75.1684 23.6001C75.2217 23.5201 75.275 23.4801 75.3284 23.4801C75.3817 23.4801 75.4084 23.5001 75.4084 23.5401C75.4084 23.5801 75.395 23.6267 75.3684 23.6801C74.6484 24.6401 73.9284 25.4334 73.2084 26.0601C72.5017 26.6867 71.6284 27.3001 70.5884 27.9001C69.5617 28.5001 68.6217 28.8001 67.7684 28.8001C66.7017 28.8001 66.1684 28.3734 66.1684 27.5201C66.1684 27.4801 66.175 27.4201 66.1884 27.3401C66.2017 27.2601 66.2084 27.2001 66.2084 27.1601C64.7017 28.0934 63.4617 28.5601 62.4884 28.5601C61.3684 28.5601 60.8084 27.8801 60.8084 26.5201C60.8084 25.5334 61.155 24.4801 61.8484 23.3601C62.555 22.2267 63.455 21.2734 64.5484 20.5001C65.655 19.7134 66.7284 19.3201 67.7684 19.3201ZM80.5345 15.6001C81.6278 14.6934 82.5811 13.8734 83.3945 13.1401C84.2211 12.3934 85.0945 11.5201 86.0145 10.5201C86.9478 9.52006 87.7145 8.58006 88.3145 7.70006C88.9145 6.80672 89.4145 5.84006 89.8145 4.80006C90.2145 3.74672 90.4145 2.73339 90.4145 1.76006C90.4145 1.53339 90.3678 1.34672 90.2745 1.20006C90.1811 1.04006 90.0545 0.960056 89.8945 0.960056C89.2945 0.960056 88.4011 1.82006 87.2145 3.54006C86.0278 5.24672 84.7745 7.37339 83.4545 9.92006L80.5345 15.6001ZM78.2545 17.8001C76.9078 18.7734 75.9878 19.4534 75.4945 19.8401C74.7478 20.4267 74.3478 20.7201 74.2945 20.7201C74.2411 20.7201 74.2145 20.6934 74.2145 20.6401C74.2145 20.5867 74.2545 20.5334 74.3345 20.4801C75.9611 19.3067 77.3611 18.2401 78.5345 17.2801L82.0145 10.6801C82.1611 10.4001 82.4545 9.82006 82.8945 8.94006C83.3478 8.04672 83.6678 7.42006 83.8545 7.06006C84.0411 6.70006 84.3545 6.16006 84.7945 5.44006C85.2345 4.72006 85.6278 4.15339 85.9745 3.74006C86.9078 2.59339 87.8678 1.69339 88.8545 1.04006C89.7745 0.346724 90.6011 5.67436e-05 91.3345 5.67436e-05C91.5745 5.67436e-05 91.7478 0.100057 91.8545 0.300056C91.9611 0.500056 92.0145 0.69339 92.0145 0.880057C92.0145 3.09339 91.0211 5.43339 89.0345 7.90006C88.3678 8.72672 87.7345 9.46006 87.1345 10.1001C86.5478 10.7401 85.8011 11.4667 84.8945 12.2801C83.7745 13.2934 82.2145 14.6134 80.2145 16.2401L77.4945 21.5601C77.0145 22.5201 76.6411 23.2667 76.3745 23.8001C76.1211 24.3201 75.8611 24.9267 75.5945 25.6201C75.3411 26.3134 75.2145 26.8334 75.2145 27.1801C75.2145 27.5267 75.3211 27.8267 75.5345 28.0801C75.7478 28.3201 76.0278 28.4401 76.3745 28.4401C77.2145 28.4401 78.1478 28.1667 79.1745 27.6201C80.2011 27.0734 81.1478 26.4267 82.0145 25.6801C82.8811 24.9201 83.5211 24.2267 83.9345 23.6001C83.9878 23.5201 84.0411 23.4801 84.0945 23.4801C84.1478 23.4801 84.1745 23.5001 84.1745 23.5401C84.1745 23.5801 84.1611 23.6267 84.1345 23.6801C83.4145 24.6401 82.6945 25.4334 81.9745 26.0601C81.2678 26.6867 80.5145 27.2334 79.7145 27.7001C78.9145 28.1667 78.1411 28.5001 77.3945 28.7001C76.6611 28.9001 76.0211 29.0001 75.4745 29.0001C74.9278 29.0001 74.4945 28.8534 74.1745 28.5601C73.8545 28.2801 73.6945 27.9267 73.6945 27.5001C73.6945 27.0734 73.7611 26.6601 73.8945 26.2601C74.0411 25.8467 74.1811 25.5001 74.3145 25.2201C74.4611 24.9401 74.7478 24.4001 75.1745 23.6001L78.2545 17.8001Z" fill="black"/>
</svg>
