<svg width="83" height="29" viewBox="0 0 83 29" fill="none" xmlns="http://www.w3.org/2000/svg">
<path d="M0.220172 11.44C0.142172 10.9547 0.0858386 10.361 0.0511719 9.65903C0.0165052 8.95703 -0.000828095 8.19869 -0.000828095 7.38403C-0.000828095 6.54336 0.0121719 5.68103 0.0381719 4.79703C0.0728386 3.91303 0.111839 3.06369 0.155172 2.24903C0.207172 1.42569 0.263505 0.697695 0.324172 0.0650279L2.58617 0.104028C2.49084 0.710695 2.41284 1.38669 2.35217 2.13203C2.30017 2.86869 2.25684 3.63569 2.22217 4.43303C2.83751 4.34636 3.50484 4.28136 4.22417 4.23803C4.94351 4.19469 5.63684 4.17303 6.30417 4.17303C6.62484 4.17303 6.93251 4.18169 7.22717 4.19903C7.21851 3.54903 7.20551 2.94236 7.18817 2.37903C7.17084 1.81569 7.14917 1.33903 7.12317 0.949028C7.09717 0.559028 7.06684 0.290361 7.03217 0.143028L9.26817 2.79546e-05C9.34617 0.728028 9.40684 1.59903 9.45017 2.61303C9.50217 3.62703 9.52817 4.70169 9.52817 5.83703C9.52817 6.75569 9.51084 7.69169 9.47617 8.64503C9.44151 9.58969 9.38084 10.4997 9.29417 11.375H7.12317C7.15784 11.0977 7.18384 10.7207 7.20117 10.244C7.21851 9.75869 7.23151 9.21269 7.24017 8.60603C7.24884 7.99069 7.25317 7.34936 7.25317 6.68203C7.25317 6.56069 7.25317 6.43503 7.25317 6.30503C7.08851 6.30503 6.91951 6.30503 6.74617 6.30503C6.58151 6.29636 6.41251 6.29203 6.23917 6.29203C5.55451 6.29203 4.86117 6.31803 4.15917 6.37003C3.46584 6.41336 2.80284 6.47836 2.17017 6.56503C2.17017 6.84236 2.17017 7.11969 2.17017 7.39703C2.17017 8.15969 2.17451 8.87469 2.18317 9.54203C2.20051 10.2094 2.22651 10.816 2.26117 11.362L0.220172 11.44ZM14.3382 11.531C13.6882 11.531 13.0988 11.362 12.5702 11.024C12.0415 10.6947 11.6212 10.2484 11.3092 9.68503C11.0058 9.11303 10.8542 8.47603 10.8542 7.77403C10.8542 7.11536 10.9755 6.52169 11.2182 5.99303C11.4608 5.45569 11.7902 4.99636 12.2062 4.61503C12.6308 4.23369 13.1118 3.94336 13.6492 3.74403C14.1865 3.53603 14.7498 3.43203 15.3392 3.43203C15.8332 3.43203 16.3185 3.50136 16.7952 3.64003C16.8298 3.45803 16.8602 3.27603 16.8862 3.09403L19.1092 3.47103C19.0485 3.63569 18.9878 3.88269 18.9272 4.21203C18.8665 4.54136 18.8145 4.90969 18.7712 5.31703C18.7365 5.72436 18.7062 6.13169 18.6802 6.53903C18.6542 6.94636 18.6412 7.31469 18.6412 7.64403C18.6412 7.91269 18.6585 8.17703 18.6932 8.43703C18.7365 8.68836 18.8232 8.89636 18.9532 9.06103C19.0832 9.21703 19.2825 9.29503 19.5512 9.29503H19.7332L19.4082 11.557C18.8362 11.557 18.3638 11.4574 17.9912 11.258C17.6185 11.0674 17.3195 10.8074 17.0942 10.478C16.7215 10.894 16.2968 11.1714 15.8202 11.31C15.3435 11.4574 14.8495 11.531 14.3382 11.531ZM12.9862 8.03403C13.0295 8.45003 13.1985 8.78369 13.4932 9.03503C13.7965 9.27769 14.1778 9.39903 14.6372 9.39903C15.0792 9.39903 15.4475 9.28203 15.7422 9.04803C16.0368 8.80536 16.2795 8.47603 16.4702 8.06003C16.4615 7.92136 16.4572 7.77836 16.4572 7.63103C16.4572 7.32769 16.4658 7.01569 16.4832 6.69503C16.5005 6.37436 16.5222 6.05803 16.5482 5.74603C16.1842 5.60736 15.8028 5.53803 15.4042 5.53803C14.9362 5.53803 14.5158 5.63336 14.1432 5.82403C13.7792 6.00603 13.4932 6.26169 13.2852 6.59103C13.0772 6.92036 12.9732 7.30169 12.9732 7.73503C12.9732 7.78703 12.9732 7.83903 12.9732 7.89103C12.9732 7.94303 12.9775 7.99069 12.9862 8.03403ZM20.6499 14.196C20.5892 13.5027 20.5459 12.805 20.5199 12.103C20.4939 11.401 20.4809 10.5907 20.4809 9.67203C20.4809 8.55403 20.4982 7.44036 20.5329 6.33103C20.5675 5.22169 20.6195 4.20769 20.6889 3.28903L22.9249 3.35403C22.8989 3.55336 22.8772 3.76569 22.8599 3.99103C23.1719 3.78303 23.5055 3.63136 23.8609 3.53603C24.2249 3.44069 24.5932 3.39303 24.9659 3.39303C25.4425 3.39303 25.9062 3.47103 26.3569 3.62703C26.8075 3.77436 27.2149 4.01269 27.5789 4.34203C27.9429 4.66269 28.2289 5.07869 28.4369 5.59003C28.6535 6.10136 28.7619 6.71669 28.7619 7.43603C28.7619 8.14669 28.6535 8.76636 28.4369 9.29503C28.2202 9.82369 27.9299 10.257 27.5659 10.595C27.2019 10.9417 26.7945 11.1974 26.3439 11.362C25.8932 11.5354 25.4295 11.622 24.9529 11.622C24.0775 11.622 23.3062 11.362 22.6389 10.842C22.6562 11.3967 22.6822 11.9297 22.7169 12.441C22.7515 12.961 22.7949 13.4897 22.8469 14.027L20.6499 14.196ZM24.6149 5.55103C23.7569 5.55103 23.1112 5.97136 22.6779 6.81203C22.6519 7.33203 22.6345 7.86069 22.6259 8.39803C22.8339 8.67536 23.1025 8.91803 23.4319 9.12603C23.7612 9.32536 24.1815 9.42503 24.6929 9.42503C25.9149 9.42503 26.5259 8.72736 26.5259 7.33203C26.5259 6.95936 26.4565 6.65603 26.3179 6.42203C26.1792 6.18803 26.0059 6.01036 25.7979 5.88903C25.5899 5.75903 25.3775 5.67236 25.1609 5.62903C24.9442 5.57703 24.7622 5.55103 24.6149 5.55103ZM29.8159 14.196C29.7552 13.5027 29.7119 12.805 29.6859 12.103C29.6599 11.401 29.6469 10.5907 29.6469 9.67203C29.6469 8.55403 29.6642 7.44036 29.6989 6.33103C29.7336 5.22169 29.7856 4.20769 29.8549 3.28903L32.0909 3.35403C32.0649 3.55336 32.0432 3.76569 32.0259 3.99103C32.3379 3.78303 32.6716 3.63136 33.0269 3.53603C33.3909 3.44069 33.7592 3.39303 34.1319 3.39303C34.6086 3.39303 35.0722 3.47103 35.5229 3.62703C35.9736 3.77436 36.3809 4.01269 36.7449 4.34203C37.1089 4.66269 37.3949 5.07869 37.6029 5.59003C37.8196 6.10136 37.9279 6.71669 37.9279 7.43603C37.9279 8.14669 37.8196 8.76636 37.6029 9.29503C37.3862 9.82369 37.0959 10.257 36.7319 10.595C36.3679 10.9417 35.9606 11.1974 35.5099 11.362C35.0592 11.5354 34.5956 11.622 34.1189 11.622C33.2436 11.622 32.4722 11.362 31.8049 10.842C31.8222 11.3967 31.8482 11.9297 31.8829 12.441C31.9176 12.961 31.9609 13.4897 32.0129 14.027L29.8159 14.196ZM33.7809 5.55103C32.9229 5.55103 32.2772 5.97136 31.8439 6.81203C31.8179 7.33203 31.8006 7.86069 31.7919 8.39803C31.9999 8.67536 32.2686 8.91803 32.5979 9.12603C32.9272 9.32536 33.3476 9.42503 33.8589 9.42503C35.0809 9.42503 35.6919 8.72736 35.6919 7.33203C35.6919 6.95936 35.6226 6.65603 35.4839 6.42203C35.3452 6.18803 35.1719 6.01036 34.9639 5.88903C34.7559 5.75903 34.5436 5.67236 34.3269 5.62903C34.1102 5.57703 33.9282 5.55103 33.7809 5.55103ZM40.9579 14.027L39.0079 12.987C39.4932 12.4497 39.9656 11.895 40.4249 11.323C40.8842 10.7597 41.3219 10.179 41.7379 9.58103C41.3306 9.03503 40.9232 8.45003 40.5159 7.82603C40.1086 7.19336 39.7316 6.57369 39.3849 5.96703C39.0382 5.36036 38.7566 4.81869 38.5399 4.34203L40.6199 3.43203C40.7759 3.84803 40.9752 4.29869 41.2179 4.78403C41.4692 5.26936 41.7422 5.76336 42.0369 6.26603C42.3402 6.76869 42.6522 7.24969 42.9729 7.70903C43.9089 6.19236 44.6802 4.69736 45.2869 3.22403L47.4449 4.08203C47.0549 4.82736 46.6129 5.62903 46.1189 6.48703C45.6336 7.33636 45.1092 8.20303 44.5459 9.08703C43.9912 9.96236 43.4106 10.8204 42.8039 11.661C42.1972 12.5104 41.5819 13.299 40.9579 14.027ZM51.6186 11.453C51.6186 10.101 51.636 8.88336 51.6706 7.80003C51.714 6.70803 51.766 5.71569 51.8266 4.82303C51.896 3.92169 51.9696 3.08536 52.0476 2.31403C52.1343 1.53403 52.2166 0.788695 52.2946 0.0780277L54.5306 0.169028C54.496 0.437694 54.457 0.728028 54.4136 1.04003C54.7083 1.43869 55.029 1.89369 55.3756 2.40503C55.731 2.91636 56.0906 3.45803 56.4546 4.03003C56.8273 4.59336 57.1913 5.16103 57.5466 5.73303C57.902 6.29636 58.24 6.83803 58.5606 7.35803C58.8813 7.86936 59.163 8.32869 59.4056 8.73603C59.4663 8.13803 59.4966 7.29736 59.4966 6.21403C59.4966 5.65936 59.488 5.08736 59.4706 4.49803C59.4533 3.90869 59.4316 3.34536 59.4056 2.80803C59.3796 2.26203 59.345 1.77669 59.3016 1.35203C59.2583 0.918695 59.2106 0.580695 59.1586 0.338027L61.6026 0.0390275C61.62 0.463694 61.6286 1.02269 61.6286 1.71603C61.6373 2.40069 61.6416 3.12869 61.6416 3.90003C61.6416 4.58469 61.6373 5.27369 61.6286 5.96703C61.62 6.65169 61.6026 7.28436 61.5766 7.86503C61.5506 8.44569 61.5116 8.92669 61.4596 9.30803C61.3643 10.0534 61.1736 10.6037 60.8876 10.959C60.6016 11.3144 60.1986 11.492 59.6786 11.492C59.254 11.492 58.864 11.3447 58.5086 11.05C58.162 10.7554 57.785 10.27 57.3776 9.59403C57.1003 9.12603 56.7753 8.58869 56.4026 7.98203C56.0386 7.36669 55.6573 6.73836 55.2586 6.09703C54.8686 5.45569 54.4916 4.84469 54.1276 4.26403C54.0583 5.27803 54.0063 6.29203 53.9716 7.30603C53.937 8.31136 53.9196 9.22136 53.9196 10.036C53.9196 10.296 53.9196 10.5387 53.9196 10.764C53.9196 10.998 53.924 11.2147 53.9326 11.414L51.6186 11.453ZM67.1281 11.544C66.2961 11.544 65.5638 11.3794 64.9311 11.05C64.3071 10.7294 63.8175 10.2787 63.4621 9.69803C63.1155 9.11736 62.9421 8.44569 62.9421 7.68303C62.9421 7.22369 63.0201 6.74269 63.1761 6.24003C63.3321 5.72869 63.5835 5.25203 63.9301 4.81003C64.2768 4.36803 64.7318 4.00836 65.2951 3.73103C65.8671 3.45369 66.5605 3.31503 67.3751 3.31503C67.9645 3.31503 68.4585 3.38003 68.8571 3.51003C69.2645 3.64003 69.5938 3.80903 69.8451 4.01703C70.1051 4.22503 70.3001 4.44603 70.4301 4.68003C70.5688 4.91403 70.6598 5.13936 70.7031 5.35603C70.7551 5.56403 70.7811 5.73736 70.7811 5.87603C70.7811 6.71669 70.4258 7.36669 69.7151 7.82603C69.0131 8.27669 68.0165 8.50203 66.7251 8.50203C66.4305 8.50203 66.1488 8.48903 65.8801 8.46303C65.6201 8.43703 65.3775 8.40669 65.1521 8.37203C65.3168 8.80536 65.5898 9.12603 65.9711 9.33403C66.3525 9.53336 66.7468 9.63303 67.1541 9.63303C67.7435 9.63303 68.2635 9.52903 68.7141 9.32103C69.1648 9.10436 69.5895 8.77503 69.9881 8.33303L71.1451 9.99703C70.8678 10.2224 70.5558 10.4564 70.2091 10.699C69.8711 10.9417 69.4551 11.141 68.9611 11.297C68.4671 11.4617 67.8561 11.544 67.1281 11.544ZM67.4141 5.26503C66.9028 5.26503 66.4521 5.39503 66.0621 5.65503C65.6721 5.91503 65.3861 6.25736 65.2041 6.68203C65.4208 6.71669 65.6331 6.74703 65.8411 6.77303C66.0578 6.79036 66.2701 6.79903 66.4781 6.79903C66.6688 6.79903 66.8855 6.78169 67.1281 6.74703C67.3795 6.71236 67.6221 6.66036 67.8561 6.59103C68.0988 6.52169 68.2981 6.43503 68.4541 6.33103C68.6101 6.21836 68.6881 6.08836 68.6881 5.94103C68.6881 5.87169 68.6535 5.78503 68.5841 5.68103C68.5148 5.57703 68.3891 5.48169 68.2071 5.39503C68.0251 5.30836 67.7608 5.26503 67.4141 5.26503ZM75.0383 11.57C74.319 11.57 73.708 11.011 73.2053 9.89303C73.032 9.49436 72.8803 9.05669 72.7503 8.58003C72.6203 8.10336 72.5077 7.61803 72.4123 7.12403C72.3257 6.63003 72.252 6.15769 72.1913 5.70703C72.1393 5.24769 72.096 4.84469 72.0613 4.49803C72.0353 4.14269 72.0137 3.87403 71.9963 3.69203L74.1283 3.19803C74.2323 5.16536 74.3883 6.66036 74.5963 7.68303C74.813 8.70569 74.9777 9.21703 75.0903 9.21703C75.151 9.21703 75.2247 9.09569 75.3113 8.85303C75.4067 8.61036 75.5107 8.28969 75.6233 7.89103C75.736 7.48369 75.8443 7.03736 75.9483 6.55203C76.0523 6.06669 76.1433 5.57703 76.2213 5.08303C76.1173 4.45036 76.048 3.94769 76.0133 3.57503L78.2103 3.49703V3.65303C78.2103 4.00836 78.2363 4.42436 78.2883 4.90103C78.3403 5.37769 78.4053 5.87169 78.4833 6.38303C78.5613 6.88569 78.6437 7.35369 78.7303 7.78703C78.8257 8.22036 78.9167 8.57136 79.0033 8.84003C79.09 9.10869 79.1637 9.24303 79.2243 9.24303C79.2763 9.24303 79.35 9.12603 79.4453 8.89203C79.5407 8.65803 79.6447 8.33736 79.7573 7.93003C79.8787 7.52269 80 7.05903 80.1213 6.53903C80.2427 6.01036 80.3597 5.45569 80.4723 4.87503C80.585 4.28569 80.676 3.70069 80.7453 3.12003L82.8903 3.57503C82.743 4.39836 82.5653 5.21736 82.3573 6.03203C82.158 6.83803 81.9457 7.58769 81.7203 8.28103C81.495 8.96569 81.274 9.54203 81.0573 10.01C80.572 11.0414 79.9697 11.557 79.2503 11.557C79.0163 11.557 78.7477 11.4834 78.4443 11.336C78.1497 11.1974 77.8767 10.9027 77.6253 10.452C77.5387 10.2874 77.452 10.088 77.3653 9.85403C77.2787 9.62003 77.1963 9.36003 77.1183 9.07403C77.0143 9.39469 76.9103 9.68069 76.8063 9.93203C76.347 11.024 75.7577 11.57 75.0383 11.57ZM29.1338 28.349C29.1252 28.0717 29.1165 27.7814 29.1078 27.478C29.1078 27.1747 29.1078 26.8497 29.1078 26.503C29.1078 26.0524 29.1122 25.5844 29.1208 25.099C29.1295 24.6137 29.1468 24.1327 29.1728 23.656C28.6962 23.4134 28.2368 23.0624 27.7948 22.603C27.3615 22.135 26.9498 21.6194 26.5598 21.056C26.1698 20.484 25.8188 19.912 25.5068 19.34C25.1948 18.768 24.9305 18.2524 24.7138 17.793L26.8588 16.922C27.0062 17.3034 27.1968 17.715 27.4308 18.157C27.6648 18.5904 27.9205 19.0194 28.1978 19.444C28.4752 19.8687 28.7482 20.2544 29.0168 20.601C29.2942 20.939 29.5412 21.212 29.7578 21.42C29.9832 21.628 30.1565 21.732 30.2778 21.732C30.4078 21.732 30.5682 21.641 30.7588 21.459C30.9582 21.277 31.1662 21.0387 31.3828 20.744C31.6082 20.4407 31.8335 20.1114 32.0588 19.756C32.2928 19.392 32.5095 19.028 32.7088 18.664C32.9168 18.2914 33.0945 17.949 33.2418 17.637C33.3978 17.3164 33.5105 17.0564 33.5798 16.857L35.7638 17.689C35.5212 18.157 35.2438 18.6857 34.9318 19.275C34.6198 19.8557 34.2775 20.4364 33.9048 21.017C33.5322 21.5977 33.1378 22.122 32.7218 22.59C32.3058 23.058 31.8725 23.4134 31.4218 23.656C31.4045 24.0894 31.3958 24.6007 31.3958 25.19C31.3958 25.7707 31.4002 26.347 31.4088 26.919C31.4262 27.491 31.4392 27.9807 31.4478 28.388C31.2918 28.388 31.1055 28.388 30.8888 28.388C30.6722 28.3967 30.4512 28.401 30.2258 28.401C30.0005 28.4097 29.7925 28.414 29.6018 28.414C29.4198 28.4227 29.2898 28.427 29.2118 28.427L29.1338 28.349ZM40.8171 28.544C39.9851 28.544 39.2528 28.3794 38.6201 28.05C37.9961 27.7294 37.5064 27.2787 37.1511 26.698C36.8044 26.1174 36.6311 25.4457 36.6311 24.683C36.6311 24.2237 36.7091 23.7427 36.8651 23.24C37.0211 22.7287 37.2724 22.252 37.6191 21.81C37.9658 21.368 38.4208 21.0084 38.9841 20.731C39.5561 20.4537 40.2494 20.315 41.0641 20.315C41.6534 20.315 42.1474 20.38 42.5461 20.51C42.9534 20.64 43.2828 20.809 43.5341 21.017C43.7941 21.225 43.9891 21.446 44.1191 21.68C44.2578 21.914 44.3488 22.1394 44.3921 22.356C44.4441 22.564 44.4701 22.7374 44.4701 22.876C44.4701 23.7167 44.1148 24.3667 43.4041 24.826C42.7021 25.2767 41.7054 25.502 40.4141 25.502C40.1194 25.502 39.8378 25.489 39.5691 25.463C39.3091 25.437 39.0664 25.4067 38.8411 25.372C39.0058 25.8054 39.2788 26.126 39.6601 26.334C40.0414 26.5334 40.4358 26.633 40.8431 26.633C41.4324 26.633 41.9524 26.529 42.4031 26.321C42.8538 26.1044 43.2784 25.775 43.6771 25.333L44.8341 26.997C44.5568 27.2224 44.2448 27.4564 43.8981 27.699C43.5601 27.9417 43.1441 28.141 42.6501 28.297C42.1561 28.4617 41.5451 28.544 40.8171 28.544ZM41.1031 22.265C40.5918 22.265 40.1411 22.395 39.7511 22.655C39.3611 22.915 39.0751 23.2574 38.8931 23.682C39.1098 23.7167 39.3221 23.747 39.5301 23.773C39.7468 23.7904 39.9591 23.799 40.1671 23.799C40.3578 23.799 40.5744 23.7817 40.8171 23.747C41.0684 23.7124 41.3111 23.6604 41.5451 23.591C41.7878 23.5217 41.9871 23.435 42.1431 23.331C42.2991 23.2184 42.3771 23.0884 42.3771 22.941C42.3771 22.8717 42.3424 22.785 42.2731 22.681C42.2038 22.577 42.0781 22.4817 41.8961 22.395C41.7141 22.3084 41.4498 22.265 41.1031 22.265ZM49.1043 28.531C48.4543 28.531 47.865 28.362 47.3363 28.024C46.8076 27.6947 46.3873 27.2484 46.0753 26.685C45.772 26.113 45.6203 25.476 45.6203 24.774C45.6203 24.1154 45.7416 23.5217 45.9843 22.993C46.227 22.4557 46.5563 21.9964 46.9723 21.615C47.397 21.2337 47.878 20.9434 48.4153 20.744C48.9526 20.536 49.516 20.432 50.1053 20.432C50.5993 20.432 51.0846 20.5014 51.5613 20.64C51.596 20.458 51.6263 20.276 51.6523 20.094L53.8753 20.471C53.8146 20.6357 53.754 20.8827 53.6933 21.212C53.6326 21.5414 53.5806 21.9097 53.5373 22.317C53.5026 22.7244 53.4723 23.1317 53.4463 23.539C53.4203 23.9464 53.4073 24.3147 53.4073 24.644C53.4073 24.9127 53.4246 25.177 53.4593 25.437C53.5026 25.6884 53.5893 25.8964 53.7193 26.061C53.8493 26.217 54.0486 26.295 54.3173 26.295H54.4993L54.1743 28.557C53.6023 28.557 53.13 28.4574 52.7573 28.258C52.3846 28.0674 52.0856 27.8074 51.8603 27.478C51.4876 27.894 51.063 28.1714 50.5863 28.31C50.1096 28.4574 49.6156 28.531 49.1043 28.531ZM47.7523 25.034C47.7956 25.45 47.9646 25.7837 48.2593 26.035C48.5626 26.2777 48.944 26.399 49.4033 26.399C49.8453 26.399 50.2136 26.282 50.5083 26.048C50.803 25.8054 51.0456 25.476 51.2363 25.06C51.2276 24.9214 51.2233 24.7784 51.2233 24.631C51.2233 24.3277 51.232 24.0157 51.2493 23.695C51.2666 23.3744 51.2883 23.058 51.3143 22.746C50.9503 22.6074 50.569 22.538 50.1703 22.538C49.7023 22.538 49.282 22.6334 48.9093 22.824C48.5453 23.006 48.2593 23.2617 48.0513 23.591C47.8433 23.9204 47.7393 24.3017 47.7393 24.735C47.7393 24.787 47.7393 24.839 47.7393 24.891C47.7393 24.943 47.7436 24.9907 47.7523 25.034ZM55.26 28.518C55.2947 27.7987 55.3207 27.0794 55.338 26.36C55.3553 25.6407 55.364 24.93 55.364 24.228C55.3553 23.5867 55.3423 22.954 55.325 22.33C55.3163 21.6974 55.2947 21.0864 55.26 20.497L57.444 20.432C57.4527 20.7527 57.4657 21.082 57.483 21.42C57.7603 21.0734 58.081 20.796 58.445 20.588C58.8177 20.3714 59.2423 20.263 59.719 20.263C59.901 20.263 60.135 20.289 60.421 20.341C60.707 20.393 60.9973 20.4927 61.292 20.64L61.045 22.837C60.8283 22.707 60.5943 22.616 60.343 22.564C60.1003 22.5034 59.8967 22.473 59.732 22.473C59.1773 22.473 58.705 22.7244 58.315 23.227C57.9337 23.721 57.6737 24.41 57.535 25.294C57.535 25.9007 57.5263 26.4814 57.509 27.036C57.5003 27.582 57.4787 28.076 57.444 28.518H55.26Z" fill="#09A1FF"/>
</svg>
