<svg width="94" height="37" viewBox="0 0 94 37" fill="none" xmlns="http://www.w3.org/2000/svg">
<path d="M87.2373 36.957H0L6.7627 0H94L87.2373 36.957ZM41.4482 15.083C40.6117 15.0831 39.8166 15.2898 39.0625 15.7021C38.3085 16.1145 37.6659 16.703 37.1357 17.4688C36.6173 18.2346 36.2695 19.1128 36.0928 20.1025C36.0221 20.5032 35.9873 20.8867 35.9873 21.252C35.9873 22.0412 36.1401 22.7361 36.4463 23.3369C36.7526 23.9259 37.1827 24.3859 37.7363 24.7158C38.2901 25.034 38.9268 25.1933 39.6455 25.1934C40.376 25.1934 41.0475 25.0455 41.6602 24.751C42.2847 24.4446 42.7918 24.0621 43.1807 23.6025L42.916 25.0342H45.4082L47.1396 15.2422H44.6475L44.4004 16.6387C44.1648 16.191 43.7936 15.8199 43.2871 15.5254C42.7922 15.2308 42.1788 15.083 41.4482 15.083ZM74.6045 15.083C73.8268 15.083 73.1371 15.2067 72.5361 15.4541C71.9354 15.7015 71.4647 16.0495 71.123 16.4971C70.7931 16.9448 70.6279 17.4578 70.6279 18.0352C70.628 18.6124 70.7748 19.0898 71.0693 19.4668C71.3639 19.8438 71.7175 20.1385 72.1299 20.3506C72.5423 20.5627 73.0611 20.78 73.6855 21.0039C74.3101 21.2278 74.7641 21.4287 75.0469 21.6055C75.3412 21.7822 75.4883 22.018 75.4883 22.3125C75.4882 22.6423 75.3288 22.8956 75.0107 23.0723C74.7045 23.2371 74.3158 23.3193 73.8447 23.3193C73.3263 23.3193 72.9254 23.1957 72.6426 22.9482C72.36 22.6891 72.2362 22.3536 72.2715 21.9414H69.8672C69.8437 22.1297 69.832 22.2652 69.832 22.3477C69.832 22.9014 69.9973 23.3961 70.3271 23.832C70.6689 24.2562 71.1287 24.5924 71.7061 24.8398C72.2952 25.0755 72.9492 25.1934 73.668 25.1934C74.4692 25.1933 75.188 25.0755 75.8242 24.8398C76.4605 24.6042 76.9609 24.2622 77.3262 23.8145C77.6915 23.3667 77.875 22.8422 77.875 22.2412C77.8749 21.6994 77.7329 21.2519 77.4502 20.8984C77.1674 20.5331 76.8312 20.2501 76.4424 20.0498C76.0654 19.8378 75.559 19.6077 74.9229 19.3604C74.2867 19.1247 73.8152 18.9131 73.5088 18.7246C73.2024 18.5243 73.0488 18.2702 73.0488 17.9639C73.0489 17.6576 73.1851 17.416 73.4561 17.2393C73.727 17.0509 74.075 16.957 74.499 16.957C75.0173 16.9571 75.4117 17.0807 75.6826 17.3281C75.9535 17.5755 76.0714 17.9051 76.0361 18.3174H78.334C78.3457 18.2467 78.3516 18.1403 78.3516 17.999C78.3515 17.4337 78.193 16.9329 77.875 16.4971C77.5686 16.0493 77.132 15.7016 76.5664 15.4541C76.0008 15.2067 75.3468 15.083 74.6045 15.083ZM15.4961 12.6973L15.1426 14.6416H18.4307L16.5918 25.0342H19.084L20.9229 14.6416H24.1924L24.5459 12.6973H15.4961ZM26.4756 11.9541L24.1602 25.0342H26.6523L27.6416 19.4844C27.7948 18.7538 28.101 18.1935 28.5605 17.8047C29.0201 17.404 29.5804 17.2041 30.2402 17.2041C30.8176 17.2041 31.2591 17.3577 31.5654 17.6641C31.8835 17.9704 32.0429 18.4178 32.043 19.0068C32.043 19.2072 32.0256 19.4139 31.9902 19.626L31.0352 25.0342H33.4922L34.5176 19.29C34.5765 18.9837 34.6055 18.6417 34.6055 18.2646C34.6055 17.2632 34.3174 16.4854 33.7402 15.9316C33.1747 15.3779 32.4085 15.1007 31.4424 15.1006C30.8061 15.1006 30.1985 15.2242 29.6211 15.4717C29.0556 15.7073 28.5725 16.032 28.1719 16.4443L28.9678 11.9541H26.4756ZM55.001 15.1006C54.4001 15.1006 53.8223 15.2243 53.2686 15.4717C52.7147 15.7073 52.2376 16.0319 51.8369 16.4443L52.0488 15.2422H49.5566L47.8242 25.0342H50.3164L51.2891 19.502C51.4422 18.7596 51.7485 18.1935 52.208 17.8047C52.6793 17.4041 53.2455 17.2041 53.9053 17.2041C54.4825 17.2042 54.9242 17.3578 55.2305 17.6641C55.5485 17.9704 55.708 18.4178 55.708 19.0068C55.708 19.2072 55.6896 19.4139 55.6543 19.626L54.7002 25.0342H57.1572L58.1826 19.29C58.2415 18.9837 58.2705 18.6417 58.2705 18.2646C58.2705 17.2513 57.9759 16.4737 57.3867 15.9316C56.8094 15.3779 56.0142 15.1006 55.001 15.1006ZM61.8262 11.9541L59.5098 25.0342H62.0029L62.7451 20.8809L65.3252 25.0342H68.5244L65.0605 20.1377L70.2393 15.2422H67.0049L63.0098 19.3779L64.3184 11.9541H61.8262ZM41.7139 17.2568C42.3265 17.2569 42.8328 17.452 43.2334 17.8408C43.6458 18.2297 43.8525 18.7716 43.8525 19.4668C43.8525 19.6082 43.8283 19.8317 43.7812 20.1377C43.6752 20.7268 43.4636 21.2398 43.1455 21.6758C42.8392 22.1117 42.4681 22.4479 42.0322 22.6836C41.5962 22.9075 41.148 23.0195 40.6885 23.0195C40.0757 23.0195 39.5686 22.8186 39.168 22.418C38.7676 22.0056 38.5674 21.446 38.5674 20.7393C38.5674 20.5389 38.5848 20.3264 38.6201 20.1025C38.7262 19.5135 38.9388 19.0071 39.2568 18.583C39.575 18.1471 39.946 17.8167 40.3701 17.5928C40.8061 17.3689 41.2543 17.2568 41.7139 17.2568Z" fill="black"/>
</svg>
