<svg width="99" height="41" viewBox="0 0 99 41" fill="none" xmlns="http://www.w3.org/2000/svg">
<path d="M10.9128 28.4497C11.2976 28.6265 11.6271 28.8669 11.9012 29.1709C12.1729 29.4686 12.3777 29.8037 12.5157 30.176C12.6512 30.5421 12.714 30.9297 12.7041 31.3389C12.6918 31.7418 12.5973 32.1357 12.4204 32.5206C12.2614 32.8665 12.0479 33.1717 11.7798 33.4361C11.5136 33.6961 11.2052 33.9 10.8544 34.0479C10.9707 34.4103 11.0159 34.7794 10.9899 35.155C10.964 35.5307 10.8715 35.8915 10.7126 36.2374C10.5357 36.6223 10.2975 36.9528 9.99778 37.2288C9.69576 37.4986 9.36072 37.7034 8.99267 37.8433C8.62228 37.9769 8.23465 38.0397 7.82978 38.0317C7.42258 38.0175 7.02654 37.9219 6.64166 37.7451L-0.000702978 34.693L0.854708 32.8313L7.49707 35.8834C7.62681 35.943 7.76098 35.9759 7.8996 35.9819C8.03389 35.986 8.16316 35.9669 8.28741 35.9244C8.40931 35.8757 8.51988 35.806 8.61911 35.7155C8.71834 35.6249 8.79776 35.5147 8.85737 35.385C8.91698 35.2553 8.94884 35.1232 8.95293 34.989C8.95702 34.8547 8.93686 34.7276 8.89245 34.6076C8.8457 34.4814 8.77704 34.3687 8.68646 34.2694C8.59156 34.1682 8.47924 34.0878 8.34951 34.0282L1.70714 30.9761L2.56255 29.1145L9.20492 32.1665C9.33465 32.2261 9.46883 32.259 9.60744 32.2651C9.74174 32.2692 9.871 32.25 9.99525 32.2076C10.1172 32.1588 10.2277 32.0892 10.327 31.9986C10.4262 31.908 10.5056 31.7979 10.5652 31.6681C10.6248 31.5384 10.6567 31.4064 10.6608 31.2721C10.6649 31.1378 10.6447 31.0107 10.6003 30.8908C10.5535 30.7645 10.4849 30.6518 10.3943 30.5526C10.3014 30.447 10.1901 30.3645 10.0603 30.3048L3.41796 27.2528L4.27039 25.3976L10.9128 28.4497ZM15.4772 26.8259L14.3196 28.3937L8.16893 23.8525L8.44878 23.4734L9.55975 23.4951C9.5166 23.0728 9.55249 22.6556 9.66743 22.2435C9.77853 21.8286 9.96129 21.4489 10.2157 21.1043L11.2376 19.7203L12.7997 20.8736L11.7778 22.2577C11.6562 22.4223 11.5724 22.6 11.5262 22.7907C11.4801 22.9814 11.471 23.1699 11.4991 23.3563C11.5271 23.5426 11.5913 23.7201 11.6915 23.8888C11.7918 24.0575 11.9242 24.2026 12.0889 24.3242L15.4772 26.8259ZM12.3796 15.3045C12.5126 15.427 12.6127 15.5677 12.6799 15.7266C12.7503 15.882 12.789 16.0438 12.7959 16.2119C12.7993 16.3768 12.7725 16.5429 12.7154 16.7103C12.6581 16.871 12.5681 17.0178 12.4457 17.1509C12.3232 17.2839 12.1826 17.3874 12.024 17.4613C11.8651 17.5285 11.7033 17.5671 11.5387 17.5773C11.3738 17.5807 11.2094 17.5555 11.0455 17.5017C10.8849 17.4443 10.738 17.3544 10.605 17.2319C10.4754 17.1126 10.3755 16.9753 10.3051 16.8199C10.2344 16.6578 10.1957 16.496 10.189 16.3346C10.1821 16.1665 10.2073 16.0021 10.2647 15.8414C10.3218 15.6741 10.4116 15.5238 10.534 15.3908C10.6565 15.2578 10.7972 15.1576 10.9561 15.0905C11.1148 15.0166 11.2781 14.9761 11.4462 14.9692C11.6109 14.959 11.7752 14.9842 11.9394 15.0448C12.1033 15.0987 12.25 15.1853 12.3796 15.3045ZM19.3051 22.1371L17.9753 23.5813L12.3508 18.4027L13.6805 16.9584L19.3051 22.1371ZM23.2876 18.6103C22.9297 18.9167 22.5363 19.1378 22.1072 19.2733C21.6751 19.4053 21.2392 19.4559 20.7994 19.4252C20.3601 19.3879 19.9371 19.2708 19.5305 19.0739C19.1274 18.8739 18.7726 18.595 18.4662 18.2372L16.9896 16.5129L16.2685 17.1304L15.0055 15.6556L15.7267 15.038L13.7393 12.7173L15.2142 11.4544L17.2015 13.7751L19.4463 11.8528L20.7093 13.3276L18.4645 15.2499L19.941 16.9742C20.0741 17.1296 20.2284 17.2513 20.4039 17.3391C20.5763 17.4233 20.7564 17.4727 20.9443 17.4872C21.1322 17.5018 21.3211 17.481 21.5111 17.4248C21.698 17.365 21.8692 17.2685 22.0246 17.1354L23.147 16.1743L24.41 17.6491L23.2876 18.6103ZM26.9479 13.8634C27.0254 13.8444 27.0992 13.8192 27.1693 13.788C27.2369 13.7527 27.3033 13.7154 27.3685 13.676C27.5314 13.5776 27.6747 13.4604 27.7984 13.3245C27.922 13.1887 28.0244 13.0406 28.1055 12.8804C28.1883 12.7137 28.2449 12.5405 28.2753 12.3608C28.3074 12.1746 28.3117 11.9885 28.2883 11.8025L30.2523 12.2923C30.2304 12.6058 30.1706 12.9117 30.0727 13.2099C29.9789 13.5056 29.8508 13.786 29.6884 14.0509C29.5301 14.3134 29.339 14.5539 29.1152 14.7725C28.898 14.9927 28.6529 15.1853 28.38 15.3502C27.9197 15.6283 27.4342 15.8048 26.9235 15.8798C26.4168 15.9524 25.9185 15.9282 25.4284 15.8073C24.9424 15.6839 24.4851 15.4653 24.0564 15.1516C23.6253 14.8338 23.2572 14.4223 22.952 13.9172C22.6395 13.3999 22.4416 12.8744 22.3583 12.3409C22.2751 11.8074 22.2931 11.2988 22.4125 10.8153C22.5358 10.3293 22.7487 9.88096 23.0511 9.47032C23.3575 9.05721 23.7409 8.71161 24.2012 8.43352C24.4741 8.26863 24.7606 8.14002 25.0607 8.04769C25.3608 7.95537 25.6638 7.90016 25.9698 7.88209C26.2799 7.86156 26.5909 7.87938 26.9029 7.93556C27.2124 7.98767 27.511 8.07695 27.7987 8.20339L26.9479 13.8634ZM25.725 9.90657C25.6304 9.92481 25.5419 9.95324 25.4596 9.99185C25.3814 10.028 25.3015 10.0707 25.2201 10.1199C24.9919 10.2577 24.8019 10.4309 24.6499 10.6395C24.4995 10.8416 24.3957 11.0655 24.3385 11.3114C24.2854 11.5548 24.2825 11.8123 24.3299 12.0839C24.3748 12.3515 24.4797 12.6217 24.6445 12.8947C24.6815 12.9558 24.7253 13.0238 24.7762 13.0987C24.8311 13.1712 24.8892 13.2445 24.9507 13.3185C25.0137 13.3861 25.0776 13.4504 25.1423 13.5114C25.2069 13.5724 25.2728 13.6216 25.3398 13.6589L25.725 9.90657ZM33.5215 4.81108C33.414 4.4014 33.3913 3.99649 33.4536 3.59636C33.5159 3.19624 33.6455 2.82764 33.8424 2.49058C34.0427 2.1477 34.3018 1.85089 34.6198 1.60014C34.9377 1.34939 35.3016 1.17025 35.7113 1.06271L40.2546 -0.129815L40.7747 1.85186L36.2314 3.04439C36.0933 3.08063 35.9711 3.13978 35.8647 3.22183C35.7583 3.30388 35.6711 3.40302 35.6032 3.51925C35.5387 3.62966 35.4969 3.75136 35.4776 3.88433C35.4584 4.01731 35.4669 4.15284 35.5032 4.29094C35.5394 4.42903 35.5992 4.55358 35.6824 4.66457C35.7645 4.77097 35.8613 4.85872 35.973 4.92782C36.088 4.99112 36.212 5.03238 36.3449 5.0516C36.4779 5.07082 36.6135 5.06231 36.7515 5.02606L38.7332 4.50591C39.1429 4.39838 39.5478 4.37575 39.9479 4.43801C40.3515 4.49447 40.7224 4.62345 41.0606 4.82496C41.4023 5.02066 41.6968 5.2804 41.9442 5.60418C42.1949 5.92215 42.3741 6.28597 42.4816 6.69566C42.5891 7.10534 42.6118 7.51025 42.5495 7.91037C42.4918 8.3093 42.3628 8.68019 42.1625 9.02307C41.9656 9.36013 41.7059 9.65464 41.3833 9.9066C41.0654 10.1573 40.7015 10.3365 40.2918 10.444L35.8935 11.5985L35.3734 9.61682L39.7717 8.46235C39.9098 8.42611 40.032 8.36696 40.1384 8.28491C40.2448 8.20286 40.3303 8.10663 40.3948 7.99621C40.4627 7.87998 40.5062 7.75538 40.5255 7.62241C40.5447 7.48943 40.5362 7.3539 40.4999 7.2158C40.4637 7.07771 40.4045 6.95546 40.3225 6.84907C40.2404 6.74268 40.1419 6.65783 40.0269 6.59454C39.9152 6.52543 39.7929 6.48127 39.66 6.46205C39.527 6.44282 39.3915 6.45134 39.2534 6.48759L37.2717 7.00773C36.862 7.11526 36.4571 7.1379 36.057 7.07563C35.6568 7.01337 35.286 6.88438 34.9443 6.68868C34.606 6.48717 34.3115 6.22743 34.0608 5.90947C33.8088 5.58689 33.629 5.22077 33.5215 4.81108ZM51.5435 5.24917C51.5739 5.81945 51.5001 6.35717 51.3221 6.86231C51.1439 7.36271 50.8886 7.80288 50.5562 8.18283C50.2235 8.55802 49.8252 8.86285 49.3611 9.09731C48.9015 9.32677 48.4008 9.45595 47.8591 9.48486C47.322 9.51351 46.8105 9.43834 46.3243 9.25935C45.8427 9.07535 45.4141 8.81465 45.0387 8.47724C44.6678 8.13483 44.367 7.72433 44.1366 7.24574C43.9058 6.7624 43.7753 6.23559 43.7448 5.66531C43.7139 5.08552 43.7874 4.54305 43.9654 4.0379C44.1434 3.53275 44.3987 3.09258 44.7314 2.71739C45.0685 2.33719 45.4669 2.03237 45.9264 1.80291C46.3908 1.5732 46.8915 1.44402 47.4285 1.41536C47.9702 1.38645 48.4816 1.45687 48.9624 1.62661C49.4478 1.79134 49.8759 2.04254 50.2466 2.3802C50.617 2.71311 50.9177 3.12361 51.1487 3.61171C51.3794 4.09505 51.511 4.64087 51.5435 5.24917ZM49.5831 5.35377C49.5664 5.04012 49.499 4.76014 49.381 4.51385C49.2675 4.26254 49.118 4.05129 48.9326 3.88008C48.7468 3.70412 48.5326 3.57496 48.2899 3.49259C48.0517 3.40522 47.7996 3.36863 47.5335 3.38284C47.2673 3.39704 47.0181 3.46038 46.7858 3.57285C46.558 3.68033 46.3612 3.83143 46.1952 4.02615C46.0338 4.21587 45.91 4.44171 45.8239 4.70366C45.7375 4.96086 45.7027 5.24629 45.7194 5.55994C45.7352 5.85459 45.7996 6.12518 45.9129 6.37173C46.0261 6.61828 46.1732 6.82966 46.3542 7.00588C46.5399 7.18184 46.7521 7.31825 46.9908 7.41513C47.234 7.50701 47.4887 7.54584 47.7548 7.53164C48.021 7.51744 48.2678 7.45423 48.4953 7.342C48.7276 7.22952 48.9269 7.0783 49.0931 6.88832C49.2593 6.69835 49.3854 6.47239 49.4715 6.21044C49.5624 5.94823 49.5996 5.66268 49.5831 5.35377ZM62.3777 10.9392L60.4656 10.6012L61.3108 5.82101C61.334 5.68979 61.3302 5.56104 61.2994 5.43476C61.2732 5.30932 61.2235 5.1942 61.1502 5.08941C61.0769 4.98463 60.9858 4.89844 60.877 4.83086C60.7689 4.7586 60.6493 4.71086 60.5181 4.68766C60.3868 4.66446 60.2581 4.66828 60.1318 4.69911C60.0111 4.72609 59.8983 4.77622 59.7935 4.84952C59.6934 4.92365 59.6072 5.01474 59.5349 5.12278C59.4674 5.23165 59.422 5.3517 59.3988 5.48292L58.5536 10.2631L56.6345 9.92374L57.4797 5.14359C57.5029 5.01237 57.4991 4.88363 57.4682 4.75735C57.4421 4.6319 57.3924 4.51679 57.3191 4.412C57.2458 4.30722 57.1547 4.22103 57.0458 4.15345C56.9378 4.08119 56.8181 4.03345 56.6869 4.01025C56.5557 3.98705 56.4269 3.99086 56.3007 4.0217C56.1799 4.04868 56.0671 4.09881 55.9623 4.17211C55.8622 4.24624 55.7761 4.33732 55.7038 4.44537C55.6362 4.55424 55.5908 4.67429 55.5676 4.80551L54.7224 9.58566L52.8033 9.24633L54.1345 1.7176L54.5985 1.79963L55.0168 2.46804C55.3237 2.29032 55.6472 2.16872 55.9874 2.10322C56.3332 2.03386 56.6794 2.02984 57.0262 2.09116C57.3777 2.15331 57.7082 2.27941 58.0178 2.46946C58.332 2.66034 58.587 2.93984 58.7829 3.30795C58.9283 3.16933 59.0859 3.05704 59.2557 2.97108C59.4256 2.88512 59.5987 2.8215 59.7752 2.7802C59.9563 2.73974 60.1384 2.72119 60.3215 2.72456C60.5053 2.72324 60.684 2.73791 60.8574 2.76857C61.2557 2.83901 61.615 2.97987 61.9353 3.19115C62.2603 3.40326 62.5284 3.66333 62.7398 3.97134C62.9567 4.2755 63.109 4.61658 63.1968 4.99457C63.2846 5.37257 63.2933 5.76074 63.2229 6.15909L62.3777 10.9392ZM67.2326 10.7764C67.2938 10.8276 67.3578 10.8721 67.4245 10.9101C67.493 10.9437 67.5624 10.9751 67.6327 11.0043C67.8085 11.0773 67.9878 11.1234 68.1705 11.1426C68.3532 11.1617 68.5331 11.1566 68.7102 11.127C68.8936 11.095 69.0667 11.038 69.2295 10.9562C69.3985 10.8717 69.551 10.765 69.6871 10.636L70.4555 12.5086C70.1899 12.6766 69.908 12.8095 69.6098 12.9073C69.3159 13.0069 69.0142 13.0697 68.7045 13.0957C68.3992 13.1235 68.0923 13.112 67.7836 13.0612C67.4775 13.0165 67.1772 12.9331 66.8827 12.8108C66.386 12.6046 65.9562 12.318 65.5933 11.9509C65.2348 11.5856 64.9592 11.1697 64.7664 10.7032C64.578 10.2385 64.4833 9.74057 64.4822 9.20938C64.483 8.67379 64.5966 8.13349 64.8228 7.58847C65.0546 7.03026 65.3608 6.55963 65.7414 6.17658C66.122 5.79354 66.5424 5.50691 67.0027 5.31669C67.4674 5.12829 67.9547 5.03432 68.4647 5.03477C68.9791 5.03704 69.4846 5.14128 69.9813 5.34749C70.2757 5.46975 70.549 5.62444 70.8011 5.81156C71.0532 5.99867 71.2772 6.21017 71.473 6.44605C71.6732 6.68375 71.843 6.94492 71.9825 7.22955C72.1238 7.50979 72.2287 7.80326 72.2972 8.10995L67.2326 10.7764ZM69.6967 7.44772C69.626 7.38228 69.5507 7.32783 69.4708 7.28437C69.3954 7.24273 69.3137 7.20366 69.2258 7.16717C68.9796 7.06498 68.7275 7.01441 68.4694 7.01547C68.2176 7.01396 67.9756 7.06296 67.7437 7.16247C67.5161 7.2638 67.3069 7.41397 67.116 7.613C66.927 7.80763 66.7714 8.05219 66.6491 8.34668C66.6217 8.41261 66.5929 8.48825 66.5626 8.57358C66.5368 8.66075 66.5122 8.75102 66.4889 8.8444C66.4718 8.93521 66.4578 9.02474 66.4469 9.11298C66.436 9.20122 66.4354 9.2834 66.445 9.35954L69.6967 7.44772ZM73.989 16.4144C73.5892 16.1652 73.2601 15.8564 73.0018 15.488C72.7461 15.1155 72.5667 14.7149 72.4638 14.2863C72.3673 13.8561 72.3519 13.4175 72.4174 12.9704C72.4869 12.5259 72.6463 12.1037 72.8955 11.7038L74.0961 9.77723L73.2903 9.27509L74.3173 7.62716L75.1231 8.12931L76.739 5.53626L78.3869 6.56321L76.771 9.15626L79.2792 10.7193L78.2523 12.3673L75.744 10.8042L74.5434 12.7308C74.4352 12.9045 74.3655 13.0882 74.3345 13.2819C74.306 13.4717 74.3131 13.6583 74.3557 13.8419C74.3983 14.0254 74.475 14.1994 74.5856 14.3637C74.6989 14.524 74.8423 14.6582 75.016 14.7665L76.2701 15.548L75.2431 17.1959L73.989 16.4144ZM77.5493 19.1728L76.0949 17.8756L83.2082 9.90042L84.6626 11.1976L82.4151 13.7175C82.7063 13.7413 82.968 13.809 83.2002 13.9204C83.4356 14.0283 83.6492 14.1678 83.841 14.3389C84.1926 14.6525 84.4627 15.0146 84.6513 15.4251C84.8431 15.8321 84.9481 16.2542 84.9663 16.6914C84.9913 17.1281 84.93 17.5614 84.7827 17.9911C84.6421 18.4205 84.4149 18.811 84.1013 19.1626L81.1933 22.423L79.7282 21.1163L82.6363 17.8559L82.6469 17.8654C82.78 17.7162 82.8767 17.5506 82.9371 17.3685C83.0006 17.1829 83.027 16.996 83.0163 16.8078C83.0055 16.6197 82.9598 16.4386 82.8791 16.2645C82.7983 16.0905 82.6834 15.937 82.5342 15.8039C82.3815 15.6677 82.2123 15.5678 82.0267 15.5043C81.841 15.4407 81.6541 15.4143 81.466 15.4251C81.2778 15.4358 81.0952 15.4833 80.918 15.5676C80.7439 15.6483 80.5904 15.7633 80.4573 15.9124L77.5493 19.1728ZM91.0385 18.8489C90.9009 18.9663 90.7492 19.0488 90.5834 19.0965C90.4207 19.1477 90.2555 19.1667 90.0877 19.1534C89.9236 19.1371 89.7619 19.0905 89.6026 19.0138C89.4499 18.9375 89.3149 18.8306 89.1975 18.6931C89.0802 18.5555 88.9943 18.4036 88.9399 18.2372C88.8923 18.0714 88.8733 17.9062 88.883 17.7415C88.8993 17.5774 88.9441 17.4172 89.0172 17.261C89.0934 17.1084 89.2003 16.9734 89.3379 16.856C89.4718 16.7417 89.6202 16.6589 89.7829 16.6076C89.9523 16.5569 90.1175 16.5379 90.2786 16.5507C90.4463 16.5639 90.6065 16.6087 90.7591 16.6849C90.9184 16.7617 91.0568 16.8688 91.1742 17.0064C91.2916 17.144 91.3741 17.2956 91.4217 17.4614C91.4761 17.6278 91.4966 17.7948 91.4833 17.9626C91.4737 18.1272 91.4289 18.2874 91.3491 18.4431C91.276 18.5993 91.1724 18.7346 91.0385 18.8489ZM83.4245 24.9049L82.1503 23.4115L87.9662 18.4488L89.2405 19.9421L83.4245 24.9049ZM85.366 27.7373L84.3117 26.0982L90.7418 21.9621L90.9967 22.3584L90.7199 23.3004C91.1299 23.41 91.5059 23.5898 91.8476 23.8396C92.196 24.0909 92.4873 24.3986 92.7216 24.7629C92.9739 25.1551 93.136 25.5743 93.2079 26.0203C93.2838 26.4638 93.2734 26.9006 93.1765 27.3307C93.0837 27.7582 92.9088 28.1593 92.6519 28.534C92.4015 28.91 92.0782 29.2255 91.6819 29.4804L88.0076 31.8439L86.9533 30.2049L90.6276 27.8414C90.7957 27.7332 90.9332 27.5995 91.0401 27.4402C91.151 27.2783 91.2265 27.1053 91.2664 26.9212C91.3064 26.737 91.3108 26.5503 91.2796 26.361C91.2484 26.1717 91.1787 25.993 91.0706 25.8249C90.9598 25.6528 90.8236 25.5113 90.6617 25.4004C90.4998 25.2895 90.3268 25.214 90.1426 25.174C89.9585 25.1341 89.7697 25.131 89.5764 25.1648C89.3872 25.196 89.2085 25.2657 89.0403 25.3738L85.366 27.7373ZM94.2235 36.723C94.4718 36.6261 94.6921 36.4839 94.8846 36.2963C95.0832 36.1115 95.2392 35.9025 95.3525 35.6693C95.4703 35.4343 95.5391 35.1852 95.559 34.922C95.585 34.6615 95.5496 34.4071 95.4527 34.1588C95.3558 33.9106 95.222 33.692 95.0512 33.5032C94.8822 33.3189 94.6836 33.1767 94.4556 33.0767C94.2293 32.9811 93.976 32.9343 93.6958 32.9364C93.4201 32.9368 93.1271 32.9975 92.8167 33.1186C92.5197 33.2345 92.2696 33.3858 92.0666 33.5723C91.8679 33.7571 91.7155 33.9622 91.6093 34.1876C91.5049 34.4174 91.4485 34.659 91.4402 34.9126C91.4381 35.1689 91.4854 35.4212 91.5823 35.6694C91.6792 35.9177 91.8233 36.1297 92.0145 36.3054C92.2118 36.4838 92.4312 36.6204 92.6725 36.7153C92.9183 36.8083 93.1747 36.8564 93.4415 36.8596C93.7146 36.8654 93.9752 36.8199 94.2235 36.723ZM92.2107 39.6159C91.7098 39.8114 91.2026 39.8995 90.6893 39.8802C90.176 39.8609 89.6904 39.749 89.2326 39.5445C88.7764 39.3445 88.3665 39.06 88.0029 38.6911C87.6409 38.3266 87.3622 37.8938 87.1667 37.3929L86.8244 36.4766L88.6399 35.768L88.9769 36.671C89.0877 36.9547 89.2197 37.1816 89.3729 37.3517C89.5217 37.5235 89.6872 37.6531 89.8694 37.7403C90.0472 37.8293 90.2337 37.8817 90.4289 37.8975C90.6258 37.9177 90.8246 37.9167 91.0254 37.8945C90.8825 37.8686 90.7474 37.8038 90.6201 37.7002C90.4972 37.5949 90.3816 37.4689 90.2733 37.3222C90.1622 37.1816 90.0632 37.0261 89.9763 36.8557C89.8911 36.6897 89.819 36.5313 89.7602 36.3806C89.5647 35.8796 89.4668 35.3737 89.4667 34.8629C89.4683 34.3565 89.5638 33.8748 89.7532 33.4177C89.9488 32.9633 90.2422 32.5499 90.6333 32.1776C91.0244 31.8053 91.5125 31.5049 92.0978 31.2765C92.6342 31.0672 93.1702 30.9678 93.7056 30.9785C94.2411 30.9892 94.7413 31.0928 95.2063 31.2894C95.673 31.4904 96.0874 31.7731 96.4493 32.1376C96.813 32.5065 97.0926 32.9415 97.2881 33.4425C97.3781 33.673 97.4384 33.9126 97.469 34.1612C97.4996 34.4098 97.5055 34.6604 97.4866 34.913C97.4676 35.1656 97.4267 35.414 97.3636 35.6583C97.3023 35.907 97.2248 36.1467 97.1309 36.3775L98.2506 36.7528L98.4219 37.1917L92.2107 39.6159Z" fill="#EB9E0E"/>
</svg>
